<?xml version="1.0" encoding="UTF-8"?>
<svg id="Layer_2" data-name="Layer 2" xmlns="http://www.w3.org/2000/svg" viewBox="0 0 85.38 83.08">
  <defs>
    <style>
      .cls-1, .cls-2 {
        fill: #c5c0b9;
      }

      .cls-1, .cls-3 {
        stroke: #231f20;
        stroke-miterlimit: 10;
        stroke-width: 1.24px;
      }

      .cls-4 {
        fill: #231f20;
      }

      .cls-5 {
        fill: #fff;
      }

      .cls-3 {
        fill: none;
        stroke-linecap: round;
      }

      .cls-6 {
        fill: #e64925;
      }
    </style>
  </defs>
  <g id="Layer_1-2" data-name="Layer 1">
    <g>
      <g>
        <g>
          <path class="cls-2" d="M79.82,29.68c1.01-.16,1.98-.42,2.9-.86s1.73-1.23,1.96-2.22c.21-.92-.09-1.89-.49-2.75-.94-2.01-2.41-3.77-4.23-5.05-1.03-.72-2.21-1.3-3.46-1.33-1.95-.04-3.82,1.45-4.22,3.37"/>
          <path class="cls-4" d="M79.99,30.28c1.76-.29,3.73-.86,4.8-2.41,1.17-1.69.36-3.73-.56-5.33s-2.2-3.01-3.69-4.11-3.34-1.92-5.2-1.45-3.22,1.9-3.63,3.68c-.18.78,1.02,1.11,1.2.33.37-1.58,1.79-2.86,3.45-2.91,1.97-.06,3.81,1.44,5.1,2.79.66.7,1.23,1.46,1.71,2.29s1.03,1.87.99,2.88c-.1,2.12-2.81,2.75-4.48,3.03-.79.13-.45,1.33.33,1.2h0Z"/>
        </g>
        <ellipse class="cls-1" cx="76.13" cy="25.43" rx="2.32" ry="5.64" transform="translate(3.8 60.22) rotate(-44.16)"/>
        <g>
          <path class="cls-2" d="M74.99,26.54c-1.88,1.51-1.32,1.05-3.2,2.56"/>
          <path class="cls-4" d="M73.23,24.78c-1.06.86-2.14,1.7-3.2,2.56-.24.23-.41.49-.51.8-.16.3-.23.62-.21.96-.01.34.06.66.21.96.1.31.27.57.51.8.47.43,1.1.76,1.76.73l.66-.09c.42-.12.79-.33,1.1-.64,1.06-.86,2.14-1.7,3.2-2.56.24-.23.41-.49.51-.8.16-.3.23-.62.21-.96.01-.34-.06-.66-.21-.96-.1-.31-.27-.57-.51-.8-.47-.43-1.1-.76-1.76-.73l-.66.09c-.42.12-.79.33-1.1.64h0Z"/>
        </g>
        <path class="cls-5" d="M82.12,27.8h0s-.04,0-.06,0c.02,0,.04,0,.05.01.05.01.11.02.17,0,.01,0,.03,0,.04-.01.07-.03.14-.06.21-.09l-.16.04c.07,0,.13-.01.19-.05.01,0,.02-.01.03-.02.02-.01.05-.03.07-.04.04-.03.09-.06.13-.09.07-.05.14-.1.19-.16.04-.04.07-.08.11-.12.09-.1.18-.21.25-.32.06-.09.11-.18.15-.27.04-.08.07-.16.1-.24.01-.03.02-.06.03-.08.03-.08.03-.17,0-.24v.16c.02-.09.03-.19.05-.28,0-.04.01-.07,0-.11s0-.07-.01-.1c0-.03-.02-.06-.04-.08-.05-.09-.16-.11-.25-.06-.03.01-.05.03-.07.05s-.04.06-.06.08c-.02.03-.04.06-.06.09-.04.06-.08.12-.13.18l.18-.14s-.06.03-.09.04c-.05.02-.08.06-.11.1-.02.03-.04.06-.06.09-.02.04-.05.08-.08.12-.05.08-.1.15-.16.22l.06-.08c-.04.05-.09.11-.13.16s-.09.11-.13.16-.09.1-.14.15-.09.11-.14.16c-.03.03-.05.06-.08.09-.01.01-.03.03-.04.04-.03.03-.05.05-.07.09-.02.03-.03.07-.04.1l.08-.14s-.07.08-.11.12c-.05.05-.09.1-.11.17,0,.02,0,.04-.01.06-.02.06,0,.13.04.18.01.02.03.04.06.05.03.02.07.03.11.03h0Z"/>
      </g>
      <g>
        <g>
          <path class="cls-6" d="M35.18,80.63c-5.61-.49-19.64-5.81-23.81-9.42-5.11-3.48-9.29-12.14-10.4-19.52-1.66-10.98,2.86-23.75,11.44-31.03,8.58-7.28,20.85-9.9,32.21-6.99,8.01,2.05,12.73,3.69,12.73,3.69"/>
          <path class="cls-4" d="M35.18,80.01c-3.3-.3-6.59-1.46-9.69-2.56-3.65-1.29-7.28-2.78-10.66-4.68-3.12-1.75-5.77-4.05-7.77-7.03-2.64-3.92-4.43-8.48-5.31-13.12-1.68-8.91.81-18.58,6-25.94,5.5-7.8,14.53-12.47,23.94-13.39,2.43-.24,4.89-.24,7.32,0,2.56.25,5.04.85,7.52,1.51,3.42.91,6.84,1.88,10.2,3,.15.05.3.1.45.15.76.26,1.08-.94.33-1.2-2.45-.85-4.96-1.57-7.46-2.28s-5.21-1.5-7.86-1.98c-2.51-.45-5.06-.67-7.6-.61-9.71.19-19.54,4.17-25.94,11.63C2.61,30.56-.62,40.27.1,49.53c.37,4.83,1.88,9.59,4.12,13.87,1.08,2.05,2.36,4.02,3.91,5.75,1.19,1.32,2.6,2.46,4.06,3.46,3.05,2.09,6.56,3.57,9.99,4.92s7.23,2.7,10.99,3.42c.67.13,1.34.23,2.01.29.8.07.79-1.17,0-1.24h0Z"/>
        </g>
        <g>
          <path class="cls-6" d="M52.41,16.09c-10.96-1.86-22.79,1.47-30.57,9.4s-11.2,19.9-8.8,30.75c2.41,10.85,10.57,20.25,20.97,24.15s22.73,2.19,31.68-4.4c5.75-4.24,10.08-10.34,12.34-17.12,3-9,2.85-19.61-2.34-27.56-5.66-8.68-15.26-13.85-23.29-15.22Z"/>
          <path class="cls-4" d="M52.57,15.49c-7-1.17-14.26-.33-20.78,2.48s-11.96,7.67-15.49,13.83-5.14,13.31-4.52,20.33,3.32,13.14,7.59,18.38,10.06,9.23,16.54,11.17c6.91,2.06,14.49,1.81,21.29-.56s12.77-7,16.91-13,6.41-13.37,6.51-20.69c.05-3.63-.45-7.3-1.63-10.74s-3.09-6.53-5.47-9.28c-4.39-5.06-10.3-8.84-16.67-10.86-1.4-.45-2.83-.8-4.28-1.05-.78-.14-1.12,1.06-.33,1.2,6.12,1.06,11.96,3.91,16.69,7.92,2.59,2.2,4.9,4.77,6.66,7.68s2.94,6.39,3.46,9.85c1.05,6.95-.23,14.36-3.29,20.67-3.07,6.33-8.02,11.73-14.23,15.06s-13.25,4.55-20.12,3.69-12.84-3.8-17.75-8.32-8.23-10.04-9.81-16.28c-1.67-6.59-1.09-13.65,1.35-19.97s6.84-11.88,12.6-15.52,12.65-5.43,19.47-5.26c1.67.04,3.33.2,4.97.47.78.13,1.12-1.07.33-1.2Z"/>
        </g>
        <g>
          <path class="cls-5" d="M50.65,25.13c-7.95-1.35-16.53,1.06-22.18,6.82-5.64,5.76-8.13,14.44-6.38,22.31,1.75,7.87,7.67,14.69,15.22,17.52,7.55,2.83,16.49,1.59,22.98-3.2,4.17-3.08,7.31-7.5,8.95-12.42,2.18-6.53,2.07-14.23-1.69-19.99-4.11-6.3-11.07-10.05-16.9-11.04Z"/>
          <path class="cls-4" d="M50.81,24.53c-5.07-.84-10.32-.27-15.06,1.75s-8.77,5.54-11.38,10.03-3.8,9.68-3.39,14.79,2.4,9.72,5.55,13.6,7.36,6.76,12.09,8.17c5.03,1.5,10.57,1.32,15.52-.4,10.29-3.59,16.91-13.72,17.13-24.47.11-5.41-1.56-10.52-5.08-14.65-3.19-3.74-7.54-6.54-12.21-8.04-1.04-.33-2.1-.6-3.18-.78-.78-.14-1.12,1.06-.33,1.2,4.44.77,8.68,2.84,12.1,5.77,3.85,3.3,6.49,7.6,7.23,12.65,1.48,10.08-3.66,20.88-12.69,25.7-4.39,2.34-9.52,3.25-14.45,2.63s-9.32-2.78-12.86-6.08-5.89-7.26-7-11.76c-1.17-4.75-.73-9.81,1.03-14.35s4.97-8.55,9.13-11.15,9.05-3.85,13.92-3.73c1.2.03,2.4.14,3.59.34.78.13,1.12-1.07.33-1.2Z"/>
        </g>
        <g>
          <line class="cls-3" x1="49.46" y1="28.72" x2="50.03" y2="25.36"/>
          <line class="cls-3" x1="41.96" y1="72.75" x2="42.53" y2="69.39"/>
          <line class="cls-3" x1="66.33" y1="52.52" x2="69.69" y2="53.09"/>
          <line class="cls-3" x1="22.3" y1="45.02" x2="25.66" y2="45.6"/>
          <line class="cls-3" x1="62.69" y1="36.95" x2="65.45" y2="34.95"/>
          <line class="cls-3" x1="26.54" y1="63.17" x2="29.3" y2="61.17"/>
          <line class="cls-3" x1="58.1" y1="65.76" x2="60.1" y2="68.51"/>
          <line class="cls-3" x1="31.89" y1="29.6" x2="33.89" y2="32.36"/>
          <line class="cls-3" x1="41.41" y1="28.95" x2="40.65" y2="25.62"/>
          <line class="cls-3" x1="51.34" y1="72.49" x2="50.58" y2="69.17"/>
          <line class="cls-3" x1="66.11" y1="44.47" x2="69.43" y2="43.72"/>
          <line class="cls-3" x1="22.56" y1="54.4" x2="25.88" y2="53.64"/>
          <line class="cls-3" x1="56.79" y1="31.48" x2="58.57" y2="28.58"/>
          <line class="cls-3" x1="33.42" y1="69.54" x2="35.2" y2="66.63"/>
          <line class="cls-3" x1="63.57" y1="59.85" x2="66.48" y2="61.63"/>
          <line class="cls-3" x1="25.51" y1="36.48" x2="28.42" y2="38.26"/>
        </g>
        <g>
          <g>
            <g>
              <path class="cls-4" d="M47.64,56.04c-1.61.6-3.36-.06-4.84-.94-1.48-.88-3.25-1.82-4.83-1.13-1.43.62-2.05,2.45-1.67,3.96s1.53,2.72,2.82,3.6c3.46,2.37,8.18,2.76,11.98,1,1.31-.61,2.57-1.51,3.21-2.81s.64-3.04-.46-3.98c-1.17-1-2.79-1.1-4.22-.53-.82.32-1.33.61-1.98.85Z"/>
              <path class="cls-4" d="M47.48,55.44c-3.59,1.22-6.73-4.14-10.24-1.77-1.23.83-1.79,2.41-1.62,3.84.19,1.65,1.26,3.04,2.53,4.04,2.7,2.14,6.28,3.01,9.68,2.55,3.04-.41,6.95-2.07,7.49-5.49.29-1.82-.55-3.42-2.28-4.09-.86-.33-1.8-.36-2.7-.18-1,.2-1.89.74-2.84,1.1-.74.28-.42,1.49.33,1.2,1.34-.52,2.64-1.38,4.15-1.13s2.36,1.38,2.14,2.86c-.44,2.83-3.86,4.13-6.33,4.5-2.85.42-5.85-.22-8.24-1.83-1.16-.78-2.27-1.88-2.62-3.28-.28-1.14.11-2.63,1.24-3.18,1.59-.78,3.39.54,4.73,1.28,1.51.83,3.25,1.36,4.94.79.75-.26.43-1.46-.33-1.2Z"/>
            </g>
            <g>
              <path class="cls-6" d="M44.39,58.72c1.05-.4,2.02-.53,3-.49s2.13.45,2.89,1.07,1.5,2.01,1.32,2.97c-6.12,3.19-12.87,0-14.46-2.63,1.19-.98,3.64-1.87,5.16-1.62s2.92,1.16,3.75,2.46"/>
              <path class="cls-4" d="M44.56,59.32c1.42-.52,3-.7,4.42-.08,1.14.5,2.18,1.71,2,3.03l.31-.54c-2.62,1.33-5.62,1.58-8.45.8-1.87-.51-4.09-1.5-5.16-3.22l-.1.75c1.1-.87,2.71-1.46,4.12-1.48,1.53-.02,3,.95,3.82,2.19.44.66,1.52.04,1.07-.63-1.04-1.57-2.81-2.76-4.74-2.81-1.8-.05-3.76.74-5.15,1.84-.21.16-.23.54-.1.75,1.67,2.67,5.33,3.93,8.3,4.22,2.05.2,4.15-.11,6.05-.91.4-.17,1.02-.33,1.22-.75.18-.37.07-.94-.02-1.32-.21-.84-.71-1.7-1.37-2.28-1.79-1.57-4.42-1.58-6.55-.79-.74.27-.42,1.47.33,1.2h0Z"/>
            </g>
            <path class="cls-4" d="M47.48,55.44c-3.59,1.22-6.73-4.14-10.24-1.77-1.23.83-1.79,2.41-1.62,3.84.19,1.65,1.26,3.04,2.53,4.04,2.7,2.14,6.28,3.01,9.68,2.55,3.04-.41,6.95-2.07,7.49-5.49.29-1.82-.55-3.42-2.28-4.09-.86-.33-1.8-.36-2.7-.18-1,.2-1.89.74-2.84,1.1-.74.28-.42,1.49.33,1.2,1.34-.52,2.64-1.38,4.15-1.13s2.36,1.38,2.14,2.86c-.44,2.83-3.86,4.13-6.33,4.5-2.85.42-5.85-.22-8.24-1.83-1.16-.78-2.27-1.88-2.62-3.28-.28-1.14.11-2.63,1.24-3.18,1.59-.78,3.39.54,4.73,1.28,1.51.83,3.25,1.36,4.94.79.75-.26.43-1.46-.33-1.2Z"/>
          </g>
          <path class="cls-4" d="M39.41,42.21l2.66-3.35c.03-.39.05-.78.08-1.17.04-.61-.31-1.34-.73-1.76s-1.14-.76-1.76-.73c-1.43.06-2.39,1.09-2.49,2.49-.17,2.37-.33,4.74-.5,7.12-.04.61.31,1.34.73,1.76s1.14.76,1.76.73c1.43-.06,2.39-1.09,2.49-2.49.07-.95.13-1.9.2-2.84l-2.44.25Z"/>
          <path class="cls-4" d="M54.8,43.2l2.66-3.35c.03-.36.05-.71.08-1.07.04-.61-.31-1.34-.73-1.76-.43-.43-1.14-.76-1.76-.73-1.43.06-2.39,1.09-2.49,2.49-.17,2.37-.33,4.74-.5,7.12-.04.61.31,1.34.73,1.76s1.14.76,1.76.73c1.43-.06,2.39-1.09,2.49-2.49.07-.98.14-1.96.21-2.94l-2.44.25Z"/>
          <path class="cls-4" d="M46.98,51.53c3.2,0,3.2-4.97,0-4.97s-3.2,4.97,0,4.97h0Z"/>
          <path class="cls-4" d="M47.98,48.94c2.3-6.5,4.6-13,6.9-19.5.4-1.13-1.4-1.62-1.8-.5-2.3,6.5-4.6,13-6.9,19.5-.4,1.13,1.4,1.62,1.8.5h0Z"/>
        </g>
      </g>
      <g>
        <g>
          <path class="cls-2" d="M19.62,14.61c.74,1.44,1.47,2.89,2.21,4.33"/>
          <path class="cls-4" d="M17.47,15.86c.74,1.44,1.47,2.89,2.21,4.33.27.54.92.99,1.49,1.14s1.39.09,1.92-.25,1-.85,1.14-1.49c.15-.67.07-1.3-.25-1.92-.74-1.44-1.47-2.89-2.21-4.33-.27-.54-.92-.99-1.49-1.14s-1.39-.09-1.92.25-1,.85-1.14,1.49c-.15.67-.07,1.3.25,1.92h0Z"/>
        </g>
        <g>
          <path class="cls-2" d="M12.08,14.02c-.07,1.51.78,2.95,2.01,3.74s2.77.96,4.22.7,2.8-.95,4.05-1.78c1.19-.79,2.34-1.79,2.89-3.13.46-1.14.44-2.48-.08-3.57s-1.5-1.92-2.64-2.22"/>
          <path class="cls-4" d="M11.46,14.02c-.04,1.7.84,3.28,2.24,4.23,1.59,1.07,3.68,1.15,5.49.64s3.49-1.51,4.86-2.73,2.29-2.87,2.12-4.73c-.18-2.02-1.52-3.71-3.49-4.28-.77-.22-1.1.98-.33,1.2,1.83.53,2.88,2.38,2.52,4.24s-2.03,3.1-3.56,4.01c-1.65.98-3.62,1.68-5.55,1.21-1.77-.44-3.11-1.92-3.07-3.78.02-.8-1.22-.8-1.24,0h0Z"/>
        </g>
        <ellipse class="cls-1" cx="17.1" cy="10.89" rx="5.99" ry="2.91" transform="translate(-3.14 9.83) rotate(-29.49)"/>
        <path class="cls-5" d="M23.38,10.07s-.01.08-.01.12c0,.04,0,.08.02.12.01.03.03.06.04.09l-.02-.06c.03.07.05.14.07.21v-.08s-.01,0-.01,0v-.08c0,.07,0,.13.02.2,0,.02.01.03.02.05.01.03.02.07.03.1.02.07.03.14.04.21v-.09c0,.06,0,.13.01.19,0,.03.01.07.02.1v-.1c0,.11,0,.22,0,.33s0,.22-.01.33v-.08c0,.1-.03.2-.05.31-.02.09,0,.19.07.26.03.03.05.04.09.06.02.01.04.02.07.02.01,0,.03,0,.04,0,.05,0,.09-.01.13-.04.04-.02.07-.06.1-.1.08-.11.13-.23.18-.35.04-.1.07-.2.09-.31.01-.08.03-.16.02-.24,0-.05,0-.11-.01-.16s-.01-.11-.02-.17c0-.03,0-.05-.01-.08-.01-.05-.04-.1-.06-.15-.03-.08-.07-.16-.11-.23-.01-.03-.03-.05-.05-.08,0-.01-.02-.02-.02-.04-.02-.03-.03-.05-.06-.07-.04-.04-.09-.06-.14-.08l.07.03h0s.04.03.06.04c-.05-.06-.11-.12-.17-.17-.04-.03-.08-.07-.13-.09-.03,0-.06,0-.09-.01-.04,0-.07,0-.11,0-.03,0-.06.04-.07.07h0Z"/>
        <path class="cls-5" d="M20.94,8.97s-.03-.07-.03-.08c0-.02-.03-.04-.04-.06-.03-.03-.07-.05-.11-.07-.04-.02-.09-.04-.13-.06-.02,0-.04-.02-.06-.03-.01,0-.07-.03-.02,0-.09-.04-.17-.07-.27-.09-.08-.02-.16-.05-.25-.07-.35-.07-.7-.09-1.05-.09-.08,0-.16,0-.24,0-.09,0-.17.02-.26.03-.2.02-.39.05-.59.09-.33.06-.64.15-.95.27-.21.08-.41.16-.61.26-.08.04-.16.08-.24.12-.04.02-.08.04-.12.07-.12.07-.19.15-.27.26l.08-.1h-.02s.07-.04.1-.06c-.15.11-.29.22-.43.33-.06.05-.1.1-.15.15-.04.05-.1.1-.12.15-.04.08-.06.16-.06.25l.05-.18c-.04.06-.08.12-.12.18-.04.07-.06.15-.09.23-.05.14.1.26.23.23.06-.01.13-.02.19-.04s.12-.05.19-.07h-.19c.08.02.18.04.26.01.06-.02.12-.05.17-.07.07-.03.13-.06.2-.09.13-.07.25-.14.38-.2l-.12.05s.03,0,.04-.01l-.14.02c.06,0,.12-.01.18-.03.07-.02.11-.05.17-.08.03-.02.07-.04.1-.06.08-.04.15-.08.23-.12.15-.08.31-.15.46-.22l-.12.05c.32-.14.66-.25.99-.34.17-.05.34-.08.51-.12.08-.02.16-.03.25-.04.04,0,.09-.02.13-.03s.09-.01.13-.02l-.12.02c.31-.04.62-.06.92-.09.04,0,.08,0,.12-.02.06-.02-.05,0-.01,0,.04,0,.08,0,.11,0s.08,0,.11,0c.02,0,.04,0,.06,0h.07s.03-.01,0-.01c-.04,0,.03,0,.03,0,.02,0,.04,0,.06,0,.05,0,.1,0,.14-.02.04,0,.07,0,.11-.02,0,0,.07-.05.05-.03.02-.02.05-.06.07-.06.02,0,.02-.03,0-.04h0Z"/>
      </g>
      <g>
        <g>
          <path class="cls-2" d="M49.77,8.27c-.48,2.77-.49,2.75-.97,5.52"/>
          <path class="cls-4" d="M47.37,7.61c-.32,1.84-.65,3.68-.97,5.52-.12.67-.11,1.31.25,1.92.3.52.89,1.01,1.49,1.14.64.14,1.35.11,1.92-.25.51-.33,1.03-.86,1.14-1.49.32-1.84.65-3.68.97-5.52.12-.67.11-1.31-.25-1.92-.3-.52-.89-1.01-1.49-1.14-.64-.14-1.35-.11-1.92.25-.51.33-1.03.86-1.14,1.49h0Z"/>
        </g>
        <g>
          <path class="cls-2" d="M59.71,4.03c.65,1.24.65,3.13.19,4.51s-1.49,2.54-2.73,3.07c-1.24.53-2.59.44-3.89.29-3.62-.42-7.18-1.25-10.61-2.48-.81-.29-1.65-.63-2.18-1.35-.75-1-.73-2.54-.25-3.79s1.34-2.27,2.18-3.27"/>
          <path class="cls-4" d="M59.17,4.35c.78,1.6.52,3.79-.49,5.23-1.29,1.84-3.36,1.94-5.41,1.71-2.3-.26-4.58-.71-6.82-1.32-1.11-.3-2.21-.64-3.29-1.02-.87-.3-1.87-.62-2.34-1.48-1.17-2.1.75-4.49,2.03-6,.51-.61-.36-1.49-.88-.88-1.51,1.79-3.05,3.84-2.63,6.32s3.19,3.18,5.3,3.82c2.66.81,5.4,1.39,8.16,1.73,2.41.3,4.9.25,6.58-1.77,1.56-1.88,1.95-4.77.87-6.98-.35-.72-1.43-.09-1.07.63h0Z"/>
        </g>
        <ellipse class="cls-1" cx="51.17" cy="2.61" rx="1.14" ry="8.78" transform="translate(39.02 52.39) rotate(-79.2)"/>
        <path class="cls-5" d="M58.43,6.58s-.05.02,0,0c.09-.04-.09.04-.05.02-.06.04-.1.09-.14.15-.02.02-.03.05-.05.07-.03.05-.05.1-.06.16-.03.11-.07.22-.11.33l.04-.1s-.04.07-.06.1c0,.02-.02.03-.03.05-.03.05-.05.11-.08.16l.05-.12c-.08.18-.18.35-.28.53s-.21.34-.33.5l.09-.12c-.26.34-.57.62-.91.88l.13-.1c-.06.05-.12.09-.19.13-.03.02-.06.04-.09.06-.07.05-.14.1-.21.16l.12-.1c-.11.09-.23.17-.36.24-.06.04-.12.07-.18.1-.03.02-.06.03-.1.05-.07.04-.13.09-.18.15-.05.07-.04.05-.07.12-.03.07-.04.14-.05.22l.14-.33s-.01,0-.02.01l.09-.07c-.05.04-.11.08-.17.12-.08.05-.13.11-.17.19-.06.11-.08.23-.02.34.04.06.09.11.16.14.09.05.16.06.26.07.07,0,.13,0,.2.01l-.33-.14c.08.1.2.15.33.16.08.01.14,0,.22-.01,0,0,.02,0,.03,0,.04,0,.08-.02.11-.03.07-.02.15-.04.22-.07s.14-.05.22-.08c.11-.05.24-.09.35-.15.31-.19.6-.42.84-.69.48-.53.86-1.17,1.03-1.87.03-.12.03-.24.04-.37,0-.08.02-.17.02-.25,0-.12.01-.23-.03-.34,0-.02-.01-.04-.02-.06-.04-.09-.07-.15-.15-.2,0,0-.02-.01-.02-.01-.08-.04-.15-.04-.23,0h0Z"/>
        <path class="cls-5" d="M41.88,6.37c.03-.06.05-.11.06-.17,0-.02,0-.04.01-.06.01-.05.02-.1.02-.15v.09c0-.06,0-.13.02-.19.02-.1.03-.19.04-.29v.11c.01-.2.05-.39.1-.59s.11-.39.19-.57l-.05.11c.07-.17.16-.33.24-.5.04-.08.08-.16.13-.24.02-.04.05-.08.07-.12.01-.02.02-.04.04-.05.04-.07.07-.16.07-.24,0-.01,0-.02,0-.03l-.06.22s.04-.07.05-.1c.03-.06.05-.12.08-.19l-.04.09s.03-.07.05-.11c0-.02.02-.03.02-.05.03-.06.04-.11.05-.17,0-.06-.02-.13-.05-.18l.03.22s.02-.07.03-.11c.02-.07.02-.18-.04-.23-.1-.09-.23-.05-.34-.01l.22.03c-.09-.06-.21-.07-.31-.02-.03.01-.06.03-.08.04-.03.02-.07.04-.1.06-.09.06-.17.13-.25.2l.19-.11c-.09.04-.17.06-.24.13-.04.04-.07.09-.11.14-.03.04-.06.08-.08.11-.05.07-.1.15-.15.23-.11.19-.2.4-.27.61-.06.17-.11.35-.14.53-.04.22-.07.43-.07.65,0,.13,0,.27.03.4s.05.25.11.37l-.03-.08s.02.06.04.1c.03.06.04.09.09.15,0,0,.02.02.03.03.11.11.32.09.39-.05h0Z"/>
      </g>
    </g>
  </g>
</svg>